<svg xmlns="http://www.w3.org/2000/svg" width="19.492" height="24" viewBox="0 0 19.492 24">
  <g id="Group_109" data-name="Group 109" transform="translate(-205.419 -405.685)">
    <g id="Group_108" data-name="Group 108" transform="translate(209.708 413.438)">
      <path id="Rectangle_1536" data-name="Rectangle 1536" d="M0,0H1.184a0,0,0,0,1,0,0V15.644a.592.592,0,0,1-.592.592h0A.592.592,0,0,1,0,15.644V0A0,0,0,0,1,0,0Z" transform="translate(0 0.011)" fill="#7678ed"/>
      <path id="Rectangle_1537" data-name="Rectangle 1537" d="M0,0H1.184a0,0,0,0,1,0,0V15.644a.592.592,0,0,1-.592.592h0A.592.592,0,0,1,0,15.644V0A0,0,0,0,1,0,0Z" transform="translate(2.359 0.011)" fill="#7678ed"/>
      <path id="Rectangle_1538" data-name="Rectangle 1538" d="M0,0H1.184a0,0,0,0,1,0,0V15.644a.592.592,0,0,1-.592.592h0A.592.592,0,0,1,0,15.644V0A0,0,0,0,1,0,0Z" transform="translate(4.84 0.011)" fill="#7678ed"/>
      <path id="Rectangle_1539" data-name="Rectangle 1539" d="M0,0H1.184a0,0,0,0,1,0,0V15.644a.592.592,0,0,1-.592.592h0A.592.592,0,0,1,0,15.644V0A0,0,0,0,1,0,0Z" transform="translate(7.372 0.011)" fill="#7678ed"/>
      <path id="Rectangle_1540" data-name="Rectangle 1540" d="M0,0H1.184a0,0,0,0,1,0,0V15.644a.592.592,0,0,1-.592.592h0A.592.592,0,0,1,0,15.644V0A0,0,0,0,1,0,0Z" transform="translate(9.731)" fill="#7678ed"/>
    </g>
    <path id="Rectangle_1541" data-name="Rectangle 1541" d="M0,0H19.492a0,0,0,0,1,0,0V0a1.224,1.224,0,0,1-1.224,1.224H1.224A1.224,1.224,0,0,1,0,0V0A0,0,0,0,1,0,0Z" transform="translate(205.419 405.685)" fill="#7678ed"/>
    <path id="Rectangle_1542" data-name="Rectangle 1542" d="M0,0H17.211a0,0,0,0,1,0,0V0a1.224,1.224,0,0,1-1.224,1.224H1.224A1.224,1.224,0,0,1,0,0V0A0,0,0,0,1,0,0Z" transform="translate(206.56 408.399)" fill="#7678ed"/>
    <path id="Rectangle_1543" data-name="Rectangle 1543" d="M0,0H12.735a0,0,0,0,1,0,0V0A1.224,1.224,0,0,1,11.51,1.224H1.224A1.224,1.224,0,0,1,0,0V0A0,0,0,0,1,0,0Z" transform="translate(208.798 410.991)" fill="#7678ed"/>
  </g>
</svg>
