<svg xmlns="http://www.w3.org/2000/svg" width="65.517" height="65.515" viewBox="0 0 65.517 65.515">
  <g id="humanpictos" transform="translate(0 -0.008)">
    <g id="Group_102" data-name="Group 102" transform="translate(0 11.78)">
      <g id="Group_101" data-name="Group 101" transform="translate(0)">
        <path id="Path_498" data-name="Path 498" d="M30.539,138.586,26.7,123.231a5.751,5.751,0,0,0-1.3-2.444,5.754,5.754,0,0,0-4.29-9.593H17L14.749,106.7l-.026-.049a7.681,7.681,0,1,0-8.842-1.768,5.743,5.743,0,0,0-1.869,2.994L.174,123.232a5.765,5.765,0,0,0,3.251,6.662L.06,143.356a1.919,1.919,0,0,0,3.724.931l1.556-6.223h13.2l.829,3.317a5.758,5.758,0,0,0,11.172-2.795ZM11.518,95.84a3.839,3.839,0,1,1-3.839,3.838A3.843,3.843,0,0,1,11.518,95.84ZM6.3,134.225l.96-3.838h9.36l.959,3.838Zm19.118,7.621a1.917,1.917,0,0,1-2.326-1.4L19.979,128a1.919,1.919,0,0,0-1.862-1.454H5.76A1.921,1.921,0,0,1,3.9,124.162l3.838-15.351a1.923,1.923,0,0,1,3.58-.395l0,0,2.776,5.551a1.919,1.919,0,0,0,1.717,1.061h5.3a1.919,1.919,0,1,1,0,3.839H13.437a1.909,1.909,0,0,1-1.717-1.061,1.919,1.919,0,1,0-3.433,1.717,5.726,5.726,0,0,0,5.15,3.183h7.677a1.917,1.917,0,0,1,1.862,1.453l3.838,15.353A1.923,1.923,0,0,1,25.416,141.846Z" transform="translate(0 -92.001)" fill="#3d348b"/>
      </g>
    </g>
    <g id="Group_104" data-name="Group 104" transform="translate(34.804 11.779)">
      <g id="Group_103" data-name="Group 103">
        <path id="Path_499" data-name="Path 499" d="M299.279,129.891a5.758,5.758,0,0,0,3.251-6.662l-3.839-15.357a5.737,5.737,0,0,0-1.868-2.992,7.675,7.675,0,1,0-8.842,1.768l-.026.048-2.247,4.494H281.59a5.754,5.754,0,0,0-4.29,9.593,5.751,5.751,0,0,0-1.3,2.445l-3.839,15.355a5.758,5.758,0,0,0,11.173,2.793l.829-3.316h13.2l1.556,6.223a1.919,1.919,0,0,0,3.724-.931ZM287.348,99.676a3.839,3.839,0,1,1,3.839,3.839A3.843,3.843,0,0,1,287.348,99.676Zm-2.222,34.547.959-3.839h9.36l.96,3.839Zm11.818-7.677H284.587A1.919,1.919,0,0,0,282.725,128l-3.111,12.446a1.92,1.92,0,1,1-3.725-.931l3.839-15.354a1.917,1.917,0,0,1,1.862-1.454h7.677a5.727,5.727,0,0,0,5.15-3.183,1.919,1.919,0,0,0-3.433-1.717,1.909,1.909,0,0,1-1.717,1.061H281.59a1.919,1.919,0,1,1,0-3.839h5.3a1.92,1.92,0,0,0,1.717-1.061l2.778-5.555a1.922,1.922,0,0,1,3.579.392l3.839,15.354A1.921,1.921,0,0,1,296.944,126.546Z" transform="translate(-271.993 -91.999)" fill="#3d348b"/>
      </g>
    </g>
    <g id="Group_106" data-name="Group 106" transform="translate(19.195 0.008)">
      <g id="Group_105" data-name="Group 105" transform="translate(0 0)">
        <path id="Path_500" data-name="Path 500" d="M171.375.008h-15.61a5.764,5.764,0,0,0-5.758,5.758V9.86a5.764,5.764,0,0,0,5.758,5.758h7.019l7.245,7.126a1.919,1.919,0,0,0,3.265-1.368V15.289a5.768,5.768,0,0,0,3.839-5.429V5.766A5.764,5.764,0,0,0,171.375.008Zm1.919,9.852a1.921,1.921,0,0,1-1.919,1.919,1.919,1.919,0,0,0-1.919,1.919v3.1l-4.54-4.466a1.919,1.919,0,0,0-1.346-.551h-7.805a1.921,1.921,0,0,1-1.919-1.919V5.766a1.921,1.921,0,0,1,1.919-1.919h15.61a1.921,1.921,0,0,1,1.919,1.919Z" transform="translate(-150.007 -0.008)" fill="#3d348b"/>
      </g>
    </g>
  </g>
</svg>
