<svg id="communications" xmlns="http://www.w3.org/2000/svg" width="53.933" height="53.933" viewBox="0 0 53.933 53.933">
  <path id="Path_494" data-name="Path 494" d="M340.559,218.479a1.58,1.58,0,1,1-1.58-1.58A1.58,1.58,0,0,1,340.559,218.479Zm0,0" transform="translate(-301.858 -194.051)" fill="#3d348b"/>
  <path id="Path_495" data-name="Path 495" d="M303.044,72.3a5.806,5.806,0,0,0-5.809,5.809v0a1.58,1.58,0,1,0,3.16,0,2.651,2.651,0,1,1,2.651,2.653,1.58,1.58,0,0,0-1.58,1.58v1.692a1.58,1.58,0,0,0,3.16,0V83.7a5.812,5.812,0,0,0-1.582-11.4Zm0,0" transform="translate(-265.924 -64.685)" fill="#3d348b"/>
  <path id="Path_496" data-name="Path 496" d="M15.162,255.938a8.35,8.35,0,1,0-10.24,0A10.031,10.031,0,0,0,0,264.582v3.385a1.58,1.58,0,0,0,1.58,1.58H18.5a1.58,1.58,0,0,0,1.58-1.58v-3.385A10.031,10.031,0,0,0,15.162,255.938ZM4.853,249.35a5.19,5.19,0,1,1,5.19,5.19A5.2,5.2,0,0,1,4.853,249.35Zm12.072,17.037H3.16v-1.8a6.882,6.882,0,1,1,13.764,0v1.8Zm0,0" transform="translate(0 -215.614)" fill="#3d348b"/>
  <path id="Path_497" data-name="Path 497" d="M219.767,0H199.458A6.654,6.654,0,0,0,192.8,6.657V37.121a1.581,1.581,0,0,0,2.528,1.264l6.348-4.761h18.09a6.654,6.654,0,0,0,6.657-6.657V6.657A6.654,6.654,0,0,0,219.767,0Zm3.5,26.966a3.494,3.494,0,0,1-3.5,3.5H201.15a1.582,1.582,0,0,0-.948.316l-4.241,3.181V6.657a3.494,3.494,0,0,1,3.5-3.5h20.309a3.494,3.494,0,0,1,3.5,3.5Zm0,0" transform="translate(-172.492)" fill="#3d348b"/>
</svg>
